<mxfile host="app.diagrams.net" modified="2023-04-12T21:52:14.124Z" agent="Mozilla/5.0 (Macintosh; Intel Mac OS X 10_15_7) AppleWebKit/605.1.15 (KHTML, like Gecko) Version/15.6 Safari/605.1.15" etag="ZpjV5Zt6T-DtWNptKpiS" version="21.1.7" type="github">
  <diagram name="Page-1" id="ll9jkmyDbPfBCm9Zxl_l">
    <mxGraphModel dx="1160" dy="922" grid="1" gridSize="10" guides="1" tooltips="1" connect="1" arrows="1" fold="1" page="0" pageScale="1" pageWidth="850" pageHeight="1100" math="0" shadow="0">
      <root>
        <mxCell id="0" />
        <mxCell id="1" parent="0" />
        <mxCell id="pkyX3qhPTeZwf8TOAmKQ-39" value="&lt;div&gt;&lt;br&gt;&lt;/div&gt;" style="rounded=0;whiteSpace=wrap;html=1;" vertex="1" parent="1">
          <mxGeometry x="5" y="1120" width="570" height="590" as="geometry" />
        </mxCell>
        <mxCell id="pkyX3qhPTeZwf8TOAmKQ-38" value="" style="rounded=0;whiteSpace=wrap;html=1;" vertex="1" parent="1">
          <mxGeometry x="10" y="510" width="570" height="590" as="geometry" />
        </mxCell>
        <mxCell id="pkyX3qhPTeZwf8TOAmKQ-37" value="" style="rounded=0;whiteSpace=wrap;html=1;" vertex="1" parent="1">
          <mxGeometry x="10" y="320" width="530" height="180" as="geometry" />
        </mxCell>
        <mxCell id="pkyX3qhPTeZwf8TOAmKQ-3" value="do while transport_active == true (set by&amp;nbsp;function clock.transport.start())" style="text;html=1;align=center;verticalAlign=middle;resizable=0;points=[];autosize=1;strokeColor=none;fillColor=none;" vertex="1" parent="1">
          <mxGeometry x="-10" y="170" width="400" height="30" as="geometry" />
        </mxCell>
        <mxCell id="pkyX3qhPTeZwf8TOAmKQ-4" value="clock.sync(1/global_clock_div)" style="whiteSpace=wrap;html=1;" vertex="1" parent="1">
          <mxGeometry x="20" y="230" width="200" height="60" as="geometry" />
        </mxCell>
        <mxCell id="pkyX3qhPTeZwf8TOAmKQ-8" value="Y" style="edgeStyle=orthogonalEdgeStyle;rounded=0;orthogonalLoop=1;jettySize=auto;html=1;exitX=1;exitY=1;exitDx=0;exitDy=0;entryX=0.5;entryY=0;entryDx=0;entryDy=0;" edge="1" parent="1" source="pkyX3qhPTeZwf8TOAmKQ-6">
          <mxGeometry relative="1" as="geometry">
            <mxPoint x="335" y="420" as="targetPoint" />
          </mxGeometry>
        </mxCell>
        <mxCell id="pkyX3qhPTeZwf8TOAmKQ-6" value="start == true&lt;br&gt;AND&amp;nbsp;&lt;br&gt;stop ~= true" style="rhombus;whiteSpace=wrap;html=1;" vertex="1" parent="1">
          <mxGeometry x="50" y="370" width="110" height="80" as="geometry" />
        </mxCell>
        <mxCell id="pkyX3qhPTeZwf8TOAmKQ-10" value="Send MIDI start or continue" style="rounded=0;whiteSpace=wrap;html=1;" vertex="1" parent="1">
          <mxGeometry x="340" y="390" width="120" height="60" as="geometry" />
        </mxCell>
        <mxCell id="pkyX3qhPTeZwf8TOAmKQ-11" value="Advance clock_step +1" style="whiteSpace=wrap;html=1;" vertex="1" parent="1">
          <mxGeometry x="50" y="520" width="150" height="60" as="geometry" />
        </mxCell>
        <mxCell id="pkyX3qhPTeZwf8TOAmKQ-12" style="edgeStyle=orthogonalEdgeStyle;rounded=0;orthogonalLoop=1;jettySize=auto;html=1;exitX=0.5;exitY=1;exitDx=0;exitDy=0;" edge="1" parent="1" source="pkyX3qhPTeZwf8TOAmKQ-11" target="pkyX3qhPTeZwf8TOAmKQ-11">
          <mxGeometry relative="1" as="geometry" />
        </mxCell>
        <mxCell id="pkyX3qhPTeZwf8TOAmKQ-14" style="edgeStyle=orthogonalEdgeStyle;rounded=0;orthogonalLoop=1;jettySize=auto;html=1;exitX=1;exitY=1;exitDx=0;exitDy=0;entryX=0.5;entryY=0;entryDx=0;entryDy=0;" edge="1" parent="1" source="pkyX3qhPTeZwf8TOAmKQ-13" target="pkyX3qhPTeZwf8TOAmKQ-22">
          <mxGeometry relative="1" as="geometry">
            <mxPoint x="280" y="680" as="targetPoint" />
          </mxGeometry>
        </mxCell>
        <mxCell id="pkyX3qhPTeZwf8TOAmKQ-16" value="Y" style="edgeLabel;html=1;align=center;verticalAlign=middle;resizable=0;points=[];" vertex="1" connectable="0" parent="pkyX3qhPTeZwf8TOAmKQ-14">
          <mxGeometry x="0.0603" y="3" relative="1" as="geometry">
            <mxPoint x="1" as="offset" />
          </mxGeometry>
        </mxCell>
        <mxCell id="pkyX3qhPTeZwf8TOAmKQ-13" value="stop == true?" style="rhombus;whiteSpace=wrap;html=1;" vertex="1" parent="1">
          <mxGeometry x="40" y="620" width="110" height="80" as="geometry" />
        </mxCell>
        <mxCell id="pkyX3qhPTeZwf8TOAmKQ-18" style="edgeStyle=orthogonalEdgeStyle;rounded=0;orthogonalLoop=1;jettySize=auto;html=1;exitX=1;exitY=1;exitDx=0;exitDy=0;entryX=0.5;entryY=0;entryDx=0;entryDy=0;" edge="1" parent="1" source="pkyX3qhPTeZwf8TOAmKQ-15" target="pkyX3qhPTeZwf8TOAmKQ-17">
          <mxGeometry relative="1" as="geometry" />
        </mxCell>
        <mxCell id="pkyX3qhPTeZwf8TOAmKQ-19" value="Y" style="edgeLabel;html=1;align=center;verticalAlign=middle;resizable=0;points=[];" vertex="1" connectable="0" parent="pkyX3qhPTeZwf8TOAmKQ-18">
          <mxGeometry x="-0.0507" relative="1" as="geometry">
            <mxPoint as="offset" />
          </mxGeometry>
        </mxCell>
        <mxCell id="pkyX3qhPTeZwf8TOAmKQ-15" value="% end of beat?" style="rhombus;whiteSpace=wrap;html=1;" vertex="1" parent="1">
          <mxGeometry x="345" y="690" width="110" height="80" as="geometry" />
        </mxCell>
        <mxCell id="pkyX3qhPTeZwf8TOAmKQ-21" style="edgeStyle=orthogonalEdgeStyle;rounded=0;orthogonalLoop=1;jettySize=auto;html=1;exitX=0.5;exitY=1;exitDx=0;exitDy=0;entryX=0.5;entryY=0;entryDx=0;entryDy=0;" edge="1" parent="1" source="pkyX3qhPTeZwf8TOAmKQ-17" target="pkyX3qhPTeZwf8TOAmKQ-20">
          <mxGeometry relative="1" as="geometry" />
        </mxCell>
        <mxCell id="pkyX3qhPTeZwf8TOAmKQ-17" value="- Step clock back 1 tic&lt;br&gt;- Stop MIDI&lt;br&gt;- cancel clock&lt;br&gt;-transport_active = false&lt;br&gt;-stop = false&lt;br&gt;" style="whiteSpace=wrap;html=1;" vertex="1" parent="1">
          <mxGeometry x="390" y="840" width="120" height="60" as="geometry" />
        </mxCell>
        <mxCell id="pkyX3qhPTeZwf8TOAmKQ-20" value="Stop MIDI" style="whiteSpace=wrap;html=1;" vertex="1" parent="1">
          <mxGeometry x="390" y="930" width="120" height="60" as="geometry" />
        </mxCell>
        <mxCell id="pkyX3qhPTeZwf8TOAmKQ-23" style="edgeStyle=orthogonalEdgeStyle;rounded=0;orthogonalLoop=1;jettySize=auto;html=1;exitX=1;exitY=1;exitDx=0;exitDy=0;entryX=0.5;entryY=0;entryDx=0;entryDy=0;" edge="1" parent="1" source="pkyX3qhPTeZwf8TOAmKQ-22" target="pkyX3qhPTeZwf8TOAmKQ-15">
          <mxGeometry relative="1" as="geometry" />
        </mxCell>
        <mxCell id="pkyX3qhPTeZwf8TOAmKQ-24" value="Y" style="edgeLabel;html=1;align=center;verticalAlign=middle;resizable=0;points=[];" vertex="1" connectable="0" parent="pkyX3qhPTeZwf8TOAmKQ-23">
          <mxGeometry x="-0.4364" y="-1" relative="1" as="geometry">
            <mxPoint as="offset" />
          </mxGeometry>
        </mxCell>
        <mxCell id="pkyX3qhPTeZwf8TOAmKQ-26" value="N" style="edgeStyle=orthogonalEdgeStyle;rounded=0;orthogonalLoop=1;jettySize=auto;html=1;exitX=0;exitY=1;exitDx=0;exitDy=0;" edge="1" parent="1" source="pkyX3qhPTeZwf8TOAmKQ-22" target="pkyX3qhPTeZwf8TOAmKQ-25">
          <mxGeometry relative="1" as="geometry" />
        </mxCell>
        <mxCell id="pkyX3qhPTeZwf8TOAmKQ-22" value="Internal clock?" style="rhombus;whiteSpace=wrap;html=1;" vertex="1" parent="1">
          <mxGeometry x="250" y="600" width="80" height="80" as="geometry" />
        </mxCell>
        <mxCell id="pkyX3qhPTeZwf8TOAmKQ-28" style="edgeStyle=orthogonalEdgeStyle;rounded=0;orthogonalLoop=1;jettySize=auto;html=1;exitX=1;exitY=1;exitDx=0;exitDy=0;entryX=0.5;entryY=0;entryDx=0;entryDy=0;" edge="1" parent="1" source="pkyX3qhPTeZwf8TOAmKQ-25" target="pkyX3qhPTeZwf8TOAmKQ-27">
          <mxGeometry relative="1" as="geometry" />
        </mxCell>
        <mxCell id="pkyX3qhPTeZwf8TOAmKQ-33" value="Y" style="edgeLabel;html=1;align=center;verticalAlign=middle;resizable=0;points=[];" vertex="1" connectable="0" parent="pkyX3qhPTeZwf8TOAmKQ-28">
          <mxGeometry x="-0.3739" y="3" relative="1" as="geometry">
            <mxPoint as="offset" />
          </mxGeometry>
        </mxCell>
        <mxCell id="pkyX3qhPTeZwf8TOAmKQ-30" style="edgeStyle=orthogonalEdgeStyle;rounded=0;orthogonalLoop=1;jettySize=auto;html=1;exitX=0;exitY=1;exitDx=0;exitDy=0;" edge="1" parent="1" source="pkyX3qhPTeZwf8TOAmKQ-25" target="pkyX3qhPTeZwf8TOAmKQ-29">
          <mxGeometry relative="1" as="geometry" />
        </mxCell>
        <mxCell id="pkyX3qhPTeZwf8TOAmKQ-32" value="N" style="edgeLabel;html=1;align=center;verticalAlign=middle;resizable=0;points=[];" vertex="1" connectable="0" parent="pkyX3qhPTeZwf8TOAmKQ-30">
          <mxGeometry x="-0.2103" y="3" relative="1" as="geometry">
            <mxPoint as="offset" />
          </mxGeometry>
        </mxCell>
        <mxCell id="pkyX3qhPTeZwf8TOAmKQ-25" value="&#39;clock_midi_out&#39;) ~= &#39;off&#39;" style="rhombus;whiteSpace=wrap;html=1;" vertex="1" parent="1">
          <mxGeometry x="110" y="730" width="140" height="80" as="geometry" />
        </mxCell>
        <mxCell id="pkyX3qhPTeZwf8TOAmKQ-31" style="edgeStyle=orthogonalEdgeStyle;rounded=0;orthogonalLoop=1;jettySize=auto;html=1;exitX=0.5;exitY=1;exitDx=0;exitDy=0;" edge="1" parent="1" source="pkyX3qhPTeZwf8TOAmKQ-27">
          <mxGeometry relative="1" as="geometry">
            <mxPoint x="150" y="980" as="targetPoint" />
          </mxGeometry>
        </mxCell>
        <mxCell id="pkyX3qhPTeZwf8TOAmKQ-27" value="Stop MIDI" style="whiteSpace=wrap;html=1;" vertex="1" parent="1">
          <mxGeometry x="190" y="870" width="120" height="60" as="geometry" />
        </mxCell>
        <mxCell id="pkyX3qhPTeZwf8TOAmKQ-29" value="- cancel clock&lt;br&gt;- reset arrangement or pattern&lt;br&gt;- transport_active = false&lt;br&gt;- stop = false" style="rounded=0;whiteSpace=wrap;html=1;" vertex="1" parent="1">
          <mxGeometry x="90" y="980" width="120" height="60" as="geometry" />
        </mxCell>
        <mxCell id="pkyX3qhPTeZwf8TOAmKQ-35" value="2nd check of transport_active in case it was just updated by the above" style="rhombus;whiteSpace=wrap;html=1;" vertex="1" parent="1">
          <mxGeometry x="95" y="1130" width="250" height="130" as="geometry" />
        </mxCell>
        <mxCell id="pkyX3qhPTeZwf8TOAmKQ-40" value="&lt;div&gt;&amp;nbsp; &amp;nbsp; &amp;nbsp; &amp;nbsp; modulo clock_step check &amp;gt;&amp;gt; get_next_chord()&lt;/div&gt;&lt;div&gt;&lt;br&gt;&lt;/div&gt;" style="rounded=0;whiteSpace=wrap;html=1;" vertex="1" parent="1">
          <mxGeometry x="10" y="1310" width="120" height="60" as="geometry" />
        </mxCell>
        <mxCell id="pkyX3qhPTeZwf8TOAmKQ-44" value="&lt;div style=&quot;border-color: var(--border-color);&quot;&gt;&amp;nbsp; &amp;nbsp; &amp;nbsp; &amp;nbsp; modulo clock_step check for&amp;nbsp;&lt;/div&gt;&lt;div style=&quot;border-color: var(--border-color);&quot;&gt;advance_chord_seq()&lt;/div&gt;&lt;div&gt;&lt;br&gt;&lt;/div&gt;" style="rounded=0;whiteSpace=wrap;html=1;" vertex="1" parent="1">
          <mxGeometry x="170" y="1310" width="120" height="60" as="geometry" />
        </mxCell>
        <mxCell id="pkyX3qhPTeZwf8TOAmKQ-45" value="&lt;div style=&quot;border-color: var(--border-color);&quot;&gt;&amp;nbsp; &amp;nbsp; &amp;nbsp; &amp;nbsp; modulo clock_step check for&amp;nbsp;&lt;/div&gt;&lt;div style=&quot;border-color: var(--border-color);&quot;&gt;advance_arp_seq()&lt;/div&gt;&lt;div&gt;&lt;br&gt;&lt;/div&gt;" style="rounded=0;whiteSpace=wrap;html=1;" vertex="1" parent="1">
          <mxGeometry x="310" y="1310" width="120" height="60" as="geometry" />
        </mxCell>
        <mxCell id="pkyX3qhPTeZwf8TOAmKQ-46" value="&lt;div style=&quot;border-color: var(--border-color);&quot;&gt;&amp;nbsp; &amp;nbsp; &amp;nbsp; &amp;nbsp; modulo clock_step check crow clock&lt;/div&gt;&lt;div&gt;&lt;br&gt;&lt;/div&gt;" style="rounded=0;whiteSpace=wrap;html=1;" vertex="1" parent="1">
          <mxGeometry x="440" y="1310" width="120" height="60" as="geometry" />
        </mxCell>
        <mxCell id="pkyX3qhPTeZwf8TOAmKQ-47" value="redraw grid" style="rounded=0;whiteSpace=wrap;html=1;" vertex="1" parent="1">
          <mxGeometry x="200" y="1520" width="120" height="60" as="geometry" />
        </mxCell>
      </root>
    </mxGraphModel>
  </diagram>
</mxfile>
